<svg width="24" height="24" viewBox="0 0 24 24" fill="none" xmlns="http://www.w3.org/2000/svg">
<path d="M9.54404 4.36754L8.59536 4.05132V4.05132L9.54404 4.36754ZM9.12852 5.61412L9.53914 6.52593L9.93864 6.34601L10.0772 5.93035L9.12852 5.61412ZM7.90686 6.32071L7.70638 7.30041L8.13636 7.3884L8.49221 7.13149L7.90686 6.32071ZM6.61791 6.05695L6.41743 7.03664H6.41743L6.61791 6.05695ZM4.4849 7.01634L5.35093 7.51634L4.4849 7.01634ZM3.92642 7.98366L4.79245 8.48366L3.92642 7.98366ZM4.16207 10.3106L4.91027 9.64713L4.91027 9.64713L4.16207 10.3106ZM5.03495 11.295L6.02999 11.3945L6.07355 10.959L5.78316 10.6315L5.03495 11.295ZM5.03495 12.705L5.78316 13.3685L6.07355 13.041L6.02999 12.6055L5.03495 12.705ZM4.16207 13.6894L3.41386 13.0259H3.41386L4.16207 13.6894ZM3.92642 16.0163L4.79245 15.5163L3.92642 16.0163ZM4.4849 16.9837L5.35093 16.4837L4.4849 16.9837ZM6.61791 17.9431L6.41743 16.9634L6.41743 16.9634L6.61791 17.9431ZM7.90686 17.6793L8.49221 16.8685L8.13636 16.6116L7.70638 16.6996L7.90686 17.6793ZM9.12852 18.3859L10.0772 18.0696L9.93864 17.654L9.53914 17.4741L9.12852 18.3859ZM9.54404 19.6325L8.59536 19.9487L9.54404 19.6325ZM14.4557 19.6325L13.5071 19.3162L14.4557 19.6325ZM14.8713 18.3859L14.4606 17.4741L14.0611 17.654L13.9226 18.0696L14.8713 18.3859ZM16.0929 17.6793L16.2934 16.6996L15.8634 16.6116L15.5076 16.8685L16.0929 17.6793ZM17.3819 17.9431L17.1814 18.9228V18.9228L17.3819 17.9431ZM19.5149 16.9837L18.6489 16.4837L19.5149 16.9837ZM20.0734 16.0163L20.9394 16.5163V16.5163L20.0734 16.0163ZM19.8377 13.6894L19.0895 14.3529L19.0895 14.3529L19.8377 13.6894ZM18.9648 12.705L17.9698 12.6055L17.9262 13.041L18.2166 13.3685L18.9648 12.705ZM18.9648 11.295L18.2166 10.6315L17.9262 10.959L17.9698 11.3945L18.9648 11.295ZM19.8377 10.3106L20.5859 10.9741V10.9741L19.8377 10.3106ZM20.0734 7.98366L19.2073 8.48366L19.2073 8.48366L20.0734 7.98366ZM19.5149 7.01634L20.3809 6.51634V6.51634L19.5149 7.01634ZM17.3819 6.05695L17.1814 5.07725L17.3819 6.05695ZM16.0929 6.32071L15.5076 7.13149L15.8634 7.3884L16.2934 7.30041L16.0929 6.32071ZM14.8713 5.61412L13.9226 5.93035L14.0611 6.34601L14.4606 6.52593L14.8713 5.61412ZM14.4557 4.36754L13.5071 4.68377V4.68377L14.4557 4.36754ZM10.4927 4.68377C10.6288 4.27543 11.011 4 11.4414 4V2C10.1501 2 9.0037 2.82629 8.59536 4.05132L10.4927 4.68377ZM10.0772 5.93035L10.4927 4.68377L8.59536 4.05132L8.17983 5.2979L10.0772 5.93035ZM8.49221 7.13149C8.81838 6.89601 9.16891 6.69266 9.53914 6.52593L8.71789 4.70232C8.22346 4.92498 7.75598 5.19626 7.32151 5.50993L8.49221 7.13149ZM6.41743 7.03664L7.70638 7.30041L8.10734 5.34101L6.81839 5.07725L6.41743 7.03664ZM5.35093 7.51634C5.56614 7.14358 5.99574 6.95035 6.41743 7.03664L6.81839 5.07725C5.55332 4.81837 4.26452 5.39805 3.61888 6.51634L5.35093 7.51634ZM4.79245 8.48366L5.35093 7.51634L3.61888 6.51634L3.0604 7.48366L4.79245 8.48366ZM4.91027 9.64713C4.62469 9.32508 4.57723 8.85642 4.79245 8.48366L3.0604 7.48366C2.41475 8.60195 2.55713 10.0079 3.41386 10.9741L4.91027 9.64713ZM5.78316 10.6315L4.91027 9.64713L3.41386 10.9741L4.28675 11.9584L5.78316 10.6315ZM5.99989 12C5.99989 11.7953 6.0101 11.5933 6.02999 11.3945L4.03992 11.1954C4.01343 11.4603 3.99989 11.7287 3.99989 12H5.99989ZM6.02999 12.6055C6.0101 12.4067 5.99989 12.2047 5.99989 12H3.99989C3.99989 12.2713 4.01343 12.5397 4.03992 12.8046L6.02999 12.6055ZM4.91027 14.3529L5.78316 13.3685L4.28675 12.0416L3.41386 13.0259L4.91027 14.3529ZM4.79245 15.5163C4.57723 15.1436 4.62469 14.6749 4.91027 14.3529L3.41386 13.0259C2.55713 13.9921 2.41475 15.398 3.06039 16.5163L4.79245 15.5163ZM5.35093 16.4837L4.79245 15.5163L3.06039 16.5163L3.61888 17.4837L5.35093 16.4837ZM6.41743 16.9634C5.99574 17.0496 5.56614 16.8564 5.35093 16.4837L3.61888 17.4837C4.26452 18.6019 5.55332 19.1816 6.81839 18.9228L6.41743 16.9634ZM7.70638 16.6996L6.41743 16.9634L6.81839 18.9228L8.10734 18.659L7.70638 16.6996ZM9.53914 17.4741C9.16891 17.3073 8.81838 17.104 8.49221 16.8685L7.32151 18.4901C7.75598 18.8037 8.22346 19.075 8.71789 19.2977L9.53914 17.4741ZM10.4927 19.3162L10.0772 18.0696L8.17983 18.7021L8.59536 19.9487L10.4927 19.3162ZM11.4414 20C11.011 20 10.6288 19.7246 10.4927 19.3162L8.59536 19.9487C9.0037 21.1737 10.1501 22 11.4414 22V20ZM12.5584 20H11.4414V22H12.5584V20ZM13.5071 19.3162C13.3709 19.7246 12.9888 20 12.5584 20V22C13.8497 22 14.9961 21.1737 15.4044 19.9487L13.5071 19.3162ZM13.9226 18.0696L13.5071 19.3162L15.4044 19.9487L15.8199 18.7021L13.9226 18.0696ZM15.5076 16.8685C15.1814 17.104 14.8309 17.3073 14.4606 17.4741L15.2819 19.2977C15.7763 19.075 16.2438 18.8037 16.6783 18.4901L15.5076 16.8685ZM17.5823 16.9634L16.2934 16.6996L15.8924 18.659L17.1814 18.9228L17.5823 16.9634ZM18.6489 16.4837C18.4336 16.8564 18.004 17.0497 17.5823 16.9634L17.1814 18.9228C18.4465 19.1816 19.7353 18.602 20.3809 17.4837L18.6489 16.4837ZM19.2073 15.5163L18.6489 16.4837L20.3809 17.4837L20.9394 16.5163L19.2073 15.5163ZM19.0895 14.3529C19.3751 14.6749 19.4226 15.1436 19.2073 15.5163L20.9394 16.5163C21.585 15.3981 21.4427 13.9921 20.5859 13.0259L19.0895 14.3529ZM18.2166 13.3685L19.0895 14.3529L20.5859 13.0259L19.713 12.0416L18.2166 13.3685ZM17.9999 12C17.9999 12.2047 17.9897 12.4067 17.9698 12.6055L19.9599 12.8046C19.9864 12.5397 19.9999 12.2713 19.9999 12H17.9999ZM17.9698 11.3945C17.9897 11.5933 17.9999 11.7953 17.9999 12H19.9999C19.9999 11.7287 19.9864 11.4603 19.9599 11.1954L17.9698 11.3945ZM19.0895 9.64713L18.2166 10.6315L19.713 11.9584L20.5859 10.9741L19.0895 9.64713ZM19.2073 8.48366C19.4225 8.85642 19.3751 9.32508 19.0895 9.64713L20.5859 10.9741C21.4426 10.0079 21.585 8.60195 20.9394 7.48366L19.2073 8.48366ZM18.6489 7.51634L19.2073 8.48366L20.9394 7.48366L20.3809 6.51634L18.6489 7.51634ZM17.5823 7.03664C18.004 6.95035 18.4336 7.14358 18.6489 7.51634L20.3809 6.51634C19.7353 5.39805 18.4465 4.81837 17.1814 5.07725L17.5823 7.03664ZM16.2934 7.30041L17.5823 7.03664L17.1814 5.07725L15.8924 5.34101L16.2934 7.30041ZM14.4606 6.52593C14.8309 6.69266 15.1814 6.89601 15.5076 7.13149L16.6783 5.50993C16.2438 5.19626 15.7763 4.92498 15.2819 4.70232L14.4606 6.52593ZM13.5071 4.68377L13.9226 5.93035L15.8199 5.2979L15.4044 4.05132L13.5071 4.68377ZM12.5584 4C12.9888 4 13.3709 4.27543 13.5071 4.68377L15.4044 4.05132C14.9961 2.82629 13.8497 2 12.5584 2V4ZM11.4414 4H12.5584V2H11.4414V4Z" fill="#000C34"/>
<path d="M12 14C13.1046 14 14 13.1046 14 12C14 10.8954 13.1046 10 12 10C10.8954 10 10 10.8954 10 12C10 13.1046 10.8954 14 12 14Z" stroke="#000C34" stroke-width="2"/>
</svg>
